<?xml version="1.0" standalone="no"?>
<!DOCTYPE svg PUBLIC "-//W3C//DTD SVG 20010904//EN"
 "http://www.w3.org/TR/2001/REC-SVG-20010904/DTD/svg10.dtd">
<svg version="1.0" xmlns="http://www.w3.org/2000/svg"
 width="2400.000000pt" height="2400.000000pt" viewBox="0 0 2400.000000 2400.000000"
 preserveAspectRatio="xMidYMid meet">

<g transform="translate(0.000000,2400.000000) scale(0.100000,-0.100000)"
fill="#000000" stroke="none">
<path d="M8052 19809 c4 -3432 -1 -3166 59 -3524 129 -771 495 -1502 1034
-2062 189 -197 498 -455 682 -569 470 -293 958 -467 1553 -556 137 -20 192
-23 480 -23 406 0 595 22 935 106 1091 272 2008 1014 2498 2021 215 442 297
713 379 1253 l22 150 3 3163 3 3162 -2797 0 c-1539 0 -3260 3 -3826 7 l-1027
6 2 -3134z m3350 2655 c102 -26 221 -69 328 -120 l100 -47 0 -91 c0 -50 3
-216 7 -369 l6 -277 -124 59 c-148 71 -299 121 -441 145 l-38 7 0 342 c0 188
3 351 6 363 5 19 10 20 49 13 24 -5 73 -16 107 -25z m1123 -243 c4 -154 4
-318 0 -364 l-7 -85 -67 -12 c-143 -24 -321 -92 -468 -179 l-53 -31 0 375 0
376 112 54 c153 74 302 120 469 144 4 1 10 -125 14 -278z m165 -244 l0 -374
-102 -6 c-57 -3 -148 -15 -203 -27 -102 -23 -265 -77 -265 -88 0 -9 643 -2
652 6 3 4 10 156 14 339 l7 332 25 6 c13 3 26 5 27 3 2 -2 1 -176 -2 -387 l-6
-384 -417 7 -416 8 -12 -26 c-25 -57 -119 -84 -180 -52 -15 8 -38 26 -51 40
l-24 26 -414 0 -413 0 0 380 0 380 35 0 35 0 2 -337 3 -338 325 -3 c197 -1
320 1 315 7 -34 32 -289 87 -457 98 l-98 6 0 371 0 372 35 -4 35 -4 0 -328 0
-327 88 -6 c153 -10 333 -74 539 -191 l112 -63 58 39 c197 132 389 202 593
217 l85 6 3 332 2 332 23 4 c12 2 28 5 35 6 9 1 12 -80 12 -372z m-2383 -532
c20 -9 76 -41 125 -72 l88 -57 -25 -14 c-35 -18 -81 -93 -101 -162 -15 -53
-18 -57 -57 -67 -93 -25 -167 -127 -210 -289 l-24 -89 -43 -12 c-41 -12 -170
-32 -170 -27 0 1 22 25 49 53 82 84 124 205 101 291 -10 38 -40 80 -57 80 -5
0 -8 -30 -8 -67 -1 -89 -29 -146 -116 -238 -57 -59 -84 -79 -166 -118 -54 -26
-114 -50 -133 -54 l-35 -6 66 70 c55 59 202 251 263 344 l17 27 -43 -21 c-24
-11 -73 -48 -110 -82 -157 -144 -413 -279 -653 -345 -44 -12 -88 -24 -97 -26
-15 -5 -18 2 -18 40 0 42 2 46 28 52 333 73 554 193 812 440 76 72 79 74 220
114 21 5 26 15 32 54 20 140 150 229 265 181z m1663 -772 c0 -54 -3 -128 -7
-165 l-6 -68 -83 0 -84 0 0 149 c0 82 3 156 6 165 5 13 23 16 90 16 l84 0 0
-97z m-1519 -390 c23 -115 -5 -268 -64 -346 l-24 -32 16 -82 17 -82 48 60 c67
82 193 180 300 233 140 69 133 71 125 -28 -8 -106 -30 -172 -75 -225 l-36 -42
7 -79 c4 -44 11 -80 15 -80 4 0 27 7 51 16 97 34 201 56 209 44 13 -20 -10
-124 -41 -189 -19 -39 -59 -93 -103 -139 l-71 -75 35 7 c19 4 43 10 53 12 9 3
17 1 17 -5 0 -6 -5 -11 -10 -11 -6 0 -15 -11 -21 -24 -9 -19 -28 -29 -88 -45
-43 -12 -98 -21 -124 -21 l-47 0 30 46 c63 100 73 275 29 506 l-11 57 -62 -23
c-89 -34 -196 -89 -248 -129 l-46 -35 6 83 c4 78 2 90 -38 205 -29 85 -41 134
-38 161 2 22 0 39 -4 39 -4 0 -35 -26 -68 -57 -67 -62 -128 -145 -165 -225
l-24 -52 41 -48 41 -49 21 63 c23 68 71 158 85 158 14 0 48 -90 61 -158 13
-76 2 -150 -35 -224 -22 -43 -24 -56 -15 -81 5 -17 10 -51 10 -76 1 -46 1 -46
18 -23 116 157 222 258 319 305 52 25 56 22 74 -63 18 -85 6 -191 -30 -264
-24 -51 -31 -79 -37 -166 l-7 -104 24 15 c13 9 63 21 110 28 73 11 169 38 230
65 14 6 13 -10 -12 -116 -33 -147 -56 -203 -103 -255 -21 -24 -39 -57 -45 -84
-6 -24 -17 -64 -26 -88 -21 -60 -20 -62 26 -39 71 34 210 46 252 21 13 -7 -91
-148 -153 -207 -71 -68 -95 -79 -236 -107 -60 -11 -125 -27 -144 -35 -24 -10
-30 -10 -19 -1 35 28 123 158 165 242 63 128 87 261 68 377 l-6 37 -77 -39
c-90 -45 -209 -83 -245 -78 l-26 3 40 56 c56 80 98 168 121 256 23 90 25 200
4 227 -13 17 -19 17 -62 7 -71 -18 -162 -66 -229 -120 l-59 -48 0 106 c0 181
-45 303 -151 409 -34 34 -67 62 -73 62 -16 0 -79 -101 -111 -181 -44 -106 -62
-203 -58 -313 2 -53 2 -96 1 -96 -1 0 -24 13 -50 28 -62 37 -158 75 -253 101
-41 12 -78 21 -81 21 -9 0 53 -213 84 -289 26 -62 80 -162 115 -211 16 -23 16
-24 -3 -16 -62 26 -174 57 -252 70 -48 8 -98 18 -110 22 -21 6 -23 3 -23 -30
0 -108 62 -299 132 -406 47 -72 161 -190 184 -190 11 0 14 15 14 60 l0 60 -63
63 c-83 82 -147 201 -147 274 0 22 2 23 58 17 65 -8 263 -96 324 -144 46 -37
52 -37 45 -1 -3 16 -2 68 3 115 l9 87 -45 41 c-79 73 -161 204 -179 286 -7 32
-6 34 16 27 71 -22 201 -123 250 -195 l15 -23 22 34 c11 19 32 48 46 64 l25
31 -26 64 c-32 80 -36 203 -9 295 19 65 74 175 87 175 14 0 57 -63 86 -125 26
-55 28 -70 27 -170 0 -113 -16 -178 -49 -211 -24 -25 -18 -42 33 -96 l49 -51
23 49 c40 82 165 193 248 218 21 7 22 5 22 -46 -1 -147 -90 -334 -184 -385
-18 -10 -18 -12 -3 -52 10 -23 17 -59 17 -81 0 -22 2 -40 5 -40 2 0 29 16 59
35 56 35 200 88 269 98 44 7 44 6 22 -98 -23 -106 -66 -185 -137 -250 l-62
-55 22 -78 c17 -59 42 -170 42 -187 0 -1 20 17 43 40 38 36 53 43 115 53 39 7
95 12 124 11 93 -1 172 -37 119 -54 -31 -10 -133 -87 -213 -163 -40 -38 -98
-88 -128 -111 l-54 -43 59 7 60 7 -38 -39 c-29 -30 -51 -43 -91 -52 -65 -14
-161 -59 -202 -94 -18 -15 -34 -27 -37 -27 -17 0 29 101 80 177 85 125 94 146
100 232 4 62 1 87 -16 136 -12 33 -32 96 -44 139 -12 44 -28 81 -35 84 -7 2
-45 -29 -85 -70 -72 -72 -145 -192 -181 -296 l-13 -37 -16 55 c-27 93 -103
237 -154 292 -27 28 -87 77 -135 109 -99 65 -90 70 -109 -59 -18 -126 -7 -271
25 -360 23 -60 25 -76 15 -89 -11 -13 -16 -11 -40 18 -27 33 -28 33 -48 15
-19 -17 -33 -18 -143 -13 -68 3 -145 12 -173 20 -54 15 -130 51 -139 66 -10
16 163 74 256 86 30 4 80 2 112 -4 32 -6 61 -9 65 -7 4 3 4 28 1 58 l-5 53
-50 8 c-167 29 -296 90 -403 191 -75 72 -148 177 -136 197 9 16 172 5 237 -15
26 -8 47 -13 47 -10 0 2 -12 27 -26 55 -14 28 -30 78 -36 111 -9 53 -16 64
-64 110 -58 54 -110 146 -121 211 l-6 37 44 0 c108 -1 259 -52 358 -123 25
-18 51 -36 57 -40 7 -4 1 19 -12 51 -13 31 -24 66 -24 77 0 12 -19 39 -42 60
-70 67 -89 123 -101 301 -6 85 -8 156 -5 159 9 10 62 -16 114 -55 28 -21 70
-67 94 -102 47 -71 63 -82 150 -102 62 -15 62 -15 56 7 -44 154 -50 194 -50
372 -1 99 3 202 7 230 l9 50 39 -45 c50 -58 104 -162 124 -235 8 -32 16 -59
18 -61 1 -2 18 24 36 57 30 55 32 62 21 97 -20 63 -78 158 -130 216 -50 54
-133 116 -155 116 -27 0 -75 -305 -75 -478 -1 -84 -3 -112 -11 -99 -5 9 -15
17 -20 17 -6 0 -31 18 -56 39 -60 53 -223 138 -233 121 -13 -21 -30 -182 -30
-286 0 -89 16 -197 36 -248 6 -16 4 -18 -12 -11 -10 5 -57 10 -104 13 -77 4
-87 6 -107 30 -30 36 -29 42 8 42 l31 0 -49 39 c-28 21 -66 61 -86 89 -42 56
-102 180 -93 189 20 20 172 -9 248 -48 l38 -19 0 54 c0 30 5 78 11 105 11 51
11 51 -25 85 -42 39 -73 105 -82 170 -8 58 3 63 105 48 102 -16 204 -67 286
-143 l63 -60 7 55 c9 73 3 116 -33 211 -31 85 -61 230 -49 241 12 12 152 -23
212 -52 65 -32 135 -91 176 -147 19 -27 30 -35 34 -26 3 8 14 41 25 73 22 65
60 135 84 155 33 28 138 -119 167 -234 l12 -48 53 59 c35 39 62 82 79 126 40
103 164 207 247 208 24 0 28 -5 39 -57z m1591 50 c2 -5 2 -95 0 -200 l-4 -193
-164 0 -164 0 0 200 0 200 164 0 c91 0 166 -3 168 -7z m2322 -167 c69 -41 116
-119 116 -194 0 -64 -16 -113 -108 -332 l-77 -185 -58 -3 -58 -3 15 33 c174
400 198 462 191 494 -9 49 -77 112 -129 119 -23 4 -223 5 -446 3 -367 -3 -408
-5 -438 -21 -42 -23 -72 -72 -72 -119 0 -37 55 -185 91 -243 19 -33 111 -247
107 -250 -2 -1 -20 -5 -41 -8 -45 -7 -38 -19 -167 283 -70 166 -90 222 -90
259 0 57 25 106 74 146 l38 30 396 5 c219 3 446 7 506 8 100 2 113 0 150 -22z
m-2632 -392 l-72 -66 0 -64 c0 -35 4 -64 8 -64 5 0 51 43 103 95 52 52 100 95
106 95 5 0 49 -43 97 -95 48 -52 92 -93 97 -89 5 3 9 30 9 60 l0 54 -72 70
-73 69 98 1 97 0 0 -183 c0 -101 -3 -224 -6 -273 l-7 -89 -246 3 c-135 2 -248
6 -251 9 -9 8 -12 322 -5 431 l7 102 91 0 91 0 -72 -66z m2822 -484 l45 -45
106 -755 c57 -415 107 -771 111 -792 l5 -36 -38 13 c-31 12 -175 14 -753 14
l-715 1 -53 -25 c-68 -31 -127 -92 -234 -240 -47 -66 -107 -140 -133 -165
l-47 -45 6 40 c3 22 19 153 36 290 17 138 69 534 115 880 47 347 91 668 97
715 13 103 26 131 75 161 54 33 118 36 770 35 l563 -1 44 -45z m-2734 -155 l0
-75 50 0 50 0 0 75 0 75 87 0 87 0 -32 -33 c-36 -37 -52 -81 -52 -143 l0 -41
47 -6 c80 -9 113 -69 78 -137 l-16 -30 -249 0 -250 0 -20 40 c-24 47 -25 68
-4 98 13 19 24 22 75 22 l59 0 0 43 c-1 53 -20 107 -54 152 l-27 35 85 0 86 0
0 -75z m-2969 -125 c12 -53 35 -118 62 -172 l45 -88 -30 0 c-21 0 -38 9 -56
30 -21 23 -35 30 -64 30 -21 0 -67 13 -101 28 -73 33 -128 92 -151 160 -17 49
-21 92 -8 92 34 -1 147 -37 189 -60 l52 -30 -14 48 c-8 26 -15 48 -15 50 0 2
17 2 37 0 l37 -3 17 -85z m2249 50 c-5 -16 -7 -30 -6 -30 2 0 28 9 59 19 31
11 77 23 102 27 l46 6 -20 -51 c-44 -115 -127 -209 -245 -276 -60 -34 -60 -35
-27 -35 l34 0 -40 -29 c-25 -18 -59 -31 -91 -36 l-51 -7 46 69 c67 99 103 182
121 278 15 77 18 84 41 88 15 2 29 5 33 6 4 0 3 -12 -2 -29z m910 -374 c0 -21
-6 -24 -52 -30 -54 -7 -108 -30 -108 -46 0 -12 35 -22 105 -29 56 -6 60 -8 63
-34 4 -30 5 -29 -82 -45 -112 -22 -106 -53 14 -62 l65 -5 3 -36 3 -36 -51 -6
c-71 -9 -148 -57 -91 -57 11 0 23 -4 26 -10 3 -5 31 -10 61 -10 l54 0 0 -35
c0 -32 -3 -35 -37 -40 -59 -10 -116 -30 -120 -42 -5 -13 43 -30 108 -39 45 -6
49 -9 49 -33 0 -24 -5 -27 -61 -38 -33 -6 -70 -20 -81 -30 -20 -18 -20 -18 18
-30 22 -6 58 -12 82 -12 40 -1 42 -3 42 -30 0 -27 -3 -29 -57 -39 -70 -13
-113 -28 -113 -41 0 -11 54 -28 118 -38 41 -6 43 -7 40 -37 l-3 -31 -137 -3
-138 -3 0 476 0 475 140 0 140 0 0 -24z m-3175 -238 c17 -28 71 -93 120 -144
l90 -92 -39 -5 c-32 -5 -45 -1 -72 21 -30 24 -39 26 -141 26 -91 1 -116 5
-158 24 -71 33 -145 109 -145 151 0 26 170 23 268 -5 23 -7 23 -7 8 31 -20 47
-21 45 12 45 22 0 32 -10 57 -52z m2325 2 c-10 -19 -9 -19 27 -3 52 22 223 31
223 12 0 -29 -73 -121 -118 -150 -61 -39 -110 -51 -208 -53 -45 -1 -88 -7 -95
-13 -8 -6 -32 -12 -54 -14 l-41 -4 52 51 c29 28 71 79 94 115 35 55 46 65 78
70 20 3 41 7 45 8 4 0 3 -8 -3 -19z m-1404 -276 c78 -79 144 -219 192 -407 35
-138 52 -172 52 -106 0 97 104 309 212 433 l35 40 16 -49 c22 -64 22 -151 -1
-192 -9 -18 -38 -63 -64 -100 -84 -123 -118 -249 -99 -368 5 -37 12 -70 15
-72 2 -3 47 31 98 74 147 124 270 183 382 183 l55 0 -28 -42 c-15 -24 -33 -59
-40 -78 -35 -105 -97 -145 -286 -185 -66 -13 -140 -35 -164 -47 -44 -23 -110
-92 -98 -104 3 -3 28 1 56 11 28 9 59 15 69 13 18 -3 18 -6 5 -50 -12 -43 -17
-48 -56 -59 -53 -14 -97 -37 -97 -49 0 -6 27 -10 60 -10 59 0 60 0 59 -27 0
-23 -9 -32 -51 -53 -28 -14 -58 -36 -66 -49 l-16 -23 65 3 64 4 0 -30 c0 -26
-6 -31 -43 -45 -23 -9 -52 -26 -65 -39 l-22 -22 27 6 c15 4 50 2 77 -5 42 -10
51 -17 60 -42 6 -17 11 -34 11 -37 0 -3 -27 -4 -61 -3 -55 4 -69 0 -160 -44
-54 -26 -102 -45 -105 -41 -9 8 6 67 17 67 4 0 16 14 24 31 15 28 15 42 1 152
-15 117 -15 125 4 196 26 98 25 183 -2 268 -12 38 -23 70 -24 72 -2 2 -38 -6
-81 -17 -166 -44 -295 -35 -395 30 -45 28 -134 125 -125 134 2 3 23 -3 47 -11
50 -18 149 -19 205 -4 102 29 233 7 315 -52 23 -17 45 -28 48 -24 4 4 7 55 6
113 -1 123 -29 223 -82 289 -46 59 -90 139 -112 203 -27 81 -26 220 2 220 5 0
34 -25 64 -56z m2389 -557 c28 -48 32 -107 11 -145 -12 -23 -13 -22 -43 27
-33 53 -62 76 -112 91 -36 10 -40 1 -11 -25 17 -15 50 -104 50 -134 0 -6 -11
-11 -24 -11 -16 0 -26 7 -30 23 -8 34 -72 104 -122 133 -25 15 -48 24 -51 21
-3 -4 8 -28 25 -54 17 -27 38 -65 47 -86 l15 -37 -37 0 c-35 0 -40 4 -62 46
-30 56 -105 124 -138 124 l-24 0 26 -34 c15 -19 35 -58 46 -85 l19 -51 -43 0
c-51 0 -84 21 -103 66 -21 50 -17 95 11 137 l26 37 249 0 249 0 26 -43z m1874
-43 c29 -6 31 -10 31 -47 0 -91 -87 -171 -185 -169 -47 1 -109 28 -137 59 -24
27 -48 87 -48 122 l0 30 78 4 c157 7 230 7 261 1z m528 -96 c11 -110 38 -195
52 -168 16 29 41 159 41 214 l0 56 57 0 c70 0 93 -18 93 -70 0 -40 -14 -63
-92 -147 -26 -28 -48 -56 -48 -62 0 -26 -83 -111 -133 -136 l-54 -26 -753 1
c-415 0 -755 2 -757 3 -1 2 27 43 64 90 l68 87 22 -50 c36 -83 45 -71 62 83 9
75 15 95 43 134 l33 45 7 -81 c7 -88 29 -175 51 -205 14 -19 15 -18 26 15 15
46 30 169 31 247 0 61 0 62 28 62 l29 0 6 -97 c6 -94 37 -226 57 -238 19 -12
38 43 49 143 6 56 11 123 11 147 0 64 26 62 32 -2 15 -148 154 -275 300 -274
146 0 264 114 294 284 5 27 11 37 25 37 17 0 19 -8 19 -85 0 -81 22 -223 40
-254 15 -27 33 30 57 179 12 80 23 148 23 153 0 4 9 7 19 7 17 0 20 -10 26
-67 18 -190 46 -307 65 -273 12 22 40 221 40 284 0 54 6 63 40 65 13 1 18 -20
27 -101z m-2527 -187 c0 -25 -4 -30 -37 -36 -21 -3 -58 -15 -82 -26 -57 -25
-46 -37 48 -52 l71 -11 0 -38 c0 -33 -3 -38 -27 -44 -75 -17 -100 -25 -118
-38 -19 -14 -18 -15 17 -30 21 -9 58 -16 83 -16 l45 0 0 -40 0 -40 -42 0 c-24
0 -63 -9 -87 -21 -40 -18 -43 -21 -29 -35 9 -9 43 -18 84 -22 l69 -7 3 -42 c3
-40 1 -43 -21 -43 -29 0 -104 -25 -124 -42 -21 -17 8 -30 82 -37 l60 -6 0 -40
0 -40 -54 -8 c-30 -4 -68 -16 -84 -26 l-30 -19 24 -13 c13 -7 51 -15 84 -18
l60 -6 0 -40 c0 -40 0 -40 -46 -46 -25 -4 -61 -15 -79 -24 l-34 -18 23 -18
c12 -10 48 -21 82 -25 l60 -7 -3 -46 -3 -46 -137 -3 -138 -3 0 214 c0 118 -3
363 -7 545 l-6 331 74 4 c41 1 107 4 147 5 l72 2 0 -29z m-1874 -736 l35 -14
-16 -31 c-26 -49 -93 -109 -131 -116 -54 -10 -124 0 -179 26 -38 17 -45 24
-30 27 11 2 29 6 40 8 11 2 54 29 95 59 82 61 119 69 186 41z m3931 -125 c82
-41 160 -113 189 -175 13 -27 24 -58 24 -68 0 -10 3 -17 8 -15 103 54 156 57
318 23 99 -21 146 -26 206 -23 43 3 78 3 78 0 0 -2 -14 -29 -31 -59 -67 -116
-233 -260 -395 -341 -44 -22 -102 -57 -128 -77 -26 -20 -49 -35 -49 -33 -68
142 -193 210 -343 186 -31 -5 -58 -7 -61 -5 -2 2 4 31 13 63 10 38 19 134 24
274 5 118 12 232 16 253 7 37 8 39 38 33 17 -3 59 -20 93 -36z m-1950 -325
c34 -23 49 -85 33 -137 l-12 -43 -19 37 c-20 39 -88 98 -113 98 -21 0 -20 -12
3 -52 11 -18 26 -57 35 -85 l15 -53 -35 0 c-35 0 -37 3 -48 53 -10 41 -72 105
-117 119 -48 14 -58 6 -29 -24 29 -31 47 -66 55 -111 7 -37 7 -37 -26 -37 -31
0 -36 4 -53 45 -10 25 -36 61 -59 80 -40 35 -111 64 -123 52 -4 -4 7 -22 24
-42 33 -36 54 -74 66 -112 7 -22 4 -23 -38 -23 -65 0 -98 40 -110 137 -6 48
-4 54 26 89 l33 37 235 -7 c179 -5 240 -10 257 -21z m-2033 -189 c46 -19 61
-61 61 -172 0 -87 -2 -94 -43 -177 -26 -54 -55 -96 -75 -111 -35 -26 -111 -50
-133 -42 -16 6 -58 85 -49 94 3 3 20 0 38 -6 53 -19 72 -14 110 27 44 49 56
72 73 136 24 90 11 172 -30 188 -20 8 -77 -32 -101 -70 -17 -27 -26 -32 -57
-33 -21 0 -38 3 -38 8 0 17 72 112 100 132 55 39 95 46 144 26z m1924 -188
c-3 -53 -3 -53 -38 -56 -31 -2 -157 -24 -217 -37 -22 -5 -23 -3 -23 70 l0 75
141 0 140 0 -3 -52z m2086 -16 c62 -36 92 -123 58 -164 -11 -13 -18 -12 -59 8
-25 13 -55 24 -65 24 -16 0 -15 -6 12 -53 34 -61 38 -97 12 -121 -18 -15 -20
-15 -38 5 -19 21 -73 53 -79 47 -1 -2 4 -36 12 -76 15 -73 15 -74 -8 -98 l-23
-25 -31 35 c-29 33 -85 74 -85 63 0 -3 7 -38 15 -78 19 -88 12 -128 -26 -165
-16 -15 -30 -26 -32 -23 -2 2 -13 20 -25 39 -11 19 -35 49 -52 65 l-32 30 6
-35 c7 -41 10 -112 8 -158 -1 -21 -14 -45 -36 -70 -32 -34 -35 -35 -42 -17
-15 44 -45 102 -68 130 l-24 29 5 -69 c6 -101 -19 -177 -74 -222 l-42 -35 -6
39 c-10 59 -34 119 -55 138 -20 18 -20 17 -20 -46 0 -107 -22 -179 -66 -216
-20 -18 -40 -33 -44 -33 -4 0 -10 27 -13 59 -3 33 -16 83 -29 113 l-24 53 -13
-80 c-15 -100 -46 -198 -69 -218 -10 -9 -33 -23 -53 -31 l-35 -14 0 76 c0 53
-5 89 -18 117 l-18 40 -19 -69 c-18 -71 -66 -174 -99 -214 -10 -12 -31 -25
-47 -28 l-29 -6 4 89 c4 77 -11 183 -23 171 -3 -2 -16 -44 -30 -94 -18 -62
-40 -109 -72 -156 -42 -62 -49 -68 -96 -78 -27 -6 -51 -9 -53 -7 -2 2 3 25 11
51 20 64 30 198 18 221 -8 14 -15 5 -39 -51 -34 -80 -93 -175 -137 -221 -27
-28 -38 -33 -79 -33 -26 0 -48 2 -48 3 0 2 9 30 21 63 29 84 40 150 33 195
l-7 39 -52 -94 c-54 -99 -144 -220 -171 -230 -21 -8 -84 -8 -84 1 0 3 12 40
26 82 15 43 28 106 31 150 4 71 3 75 -12 56 -9 -11 -37 -58 -63 -104 -31 -56
-67 -102 -106 -137 -56 -51 -62 -54 -113 -54 -29 0 -53 2 -53 5 0 3 16 37 35
76 37 73 69 177 63 207 -2 11 -28 -16 -80 -83 -118 -155 -167 -195 -240 -195
-27 0 -48 3 -48 6 0 3 13 23 29 43 15 20 40 60 55 88 25 51 60 163 52 170 -2
2 -31 -29 -64 -70 -34 -41 -93 -104 -133 -141 -64 -59 -76 -66 -113 -66 -67 0
-71 9 -25 70 47 62 122 206 116 223 -2 6 -13 -4 -25 -21 -24 -33 -191 -171
-255 -211 -31 -19 -46 -22 -81 -17 l-42 7 70 73 c62 63 152 193 142 203 -2 2
-44 -27 -94 -64 -118 -89 -251 -168 -280 -166 -12 0 -34 4 -48 7 -25 7 -23 9
33 45 68 44 133 112 162 170 34 66 27 79 -20 36 -89 -80 -283 -186 -341 -185
-13 1 -34 7 -47 14 l-25 14 41 21 c78 39 222 190 211 222 -2 5 -25 -9 -52 -31
-57 -47 -190 -114 -256 -129 -98 -23 -131 -12 -254 78 -46 33 -86 54 -119 61
-137 29 -389 242 -488 412 -76 130 -60 150 98 124 139 -24 311 -31 388 -17
120 22 245 106 245 165 0 13 -8 34 -19 47 -14 18 -16 29 -9 50 9 25 12 26 116
32 59 4 158 13 221 22 145 19 283 19 467 0 202 -22 306 -43 714 -146 385 -98
561 -132 776 -150 163 -14 382 -7 509 15 262 46 518 157 711 307 75 58 133 88
187 98 52 9 143 -5 181 -27z m-4181 -58 l46 -7 -14 -27 -14 -27 -163 -7 c-90
-4 -181 -8 -202 -9 -102 -5 0 56 121 72 87 11 168 13 226 5z m2434 -63 c8 -4
-1 -23 -30 -60 l-42 -53 -63 6 c-77 7 -333 67 -326 77 5 8 164 37 234 43 57 4
211 -4 227 -13z m-73 -1408 c3 -16 8 -45 12 -65 l6 -38 -148 0 c-89 0 -184 6
-237 15 -83 15 -222 58 -240 75 -5 4 97 10 225 15 128 4 260 10 293 15 33 4
65 8 72 9 6 0 14 -11 17 -26z m-400 -168 c65 -14 138 -25 162 -25 38 0 45 -4
59 -30 36 -69 8 -171 -55 -202 l-30 -15 74 -71 c41 -40 71 -74 66 -77 -21 -13
-170 -29 -275 -29 -121 0 -312 20 -320 34 -2 4 29 37 70 74 l74 66 -45 43
c-42 39 -45 46 -46 93 0 60 19 101 62 138 39 32 56 32 204 1z"/>
<path d="M11312 22345 l3 -45 100 -36 c211 -74 261 -92 296 -108 43 -18 49
-14 49 34 0 37 0 37 -89 78 -78 36 -328 122 -353 122 -5 0 -8 -20 -6 -45z"/>
<path d="M11314 22148 c4 -24 10 -46 14 -49 4 -3 66 -24 137 -47 72 -23 165
-59 207 -80 l76 -39 7 34 c11 60 3 67 -133 121 -114 45 -284 102 -306 102 -5
0 -6 -19 -2 -42z"/>
<path d="M11314 21956 c-3 -19 -4 -40 -2 -46 2 -6 101 -44 220 -84 l216 -72 6
45 c4 31 2 47 -6 53 -14 8 -357 122 -400 132 -25 6 -28 3 -34 -28z"/>
<path d="M12295 22351 c-66 -21 -157 -52 -202 -70 l-83 -32 0 -48 0 -48 95 38
c99 40 284 99 316 102 16 1 19 9 19 49 0 32 -4 48 -12 47 -7 0 -67 -18 -133
-38z"/>
<path d="M12240 22136 c-80 -29 -164 -63 -187 -75 -41 -20 -43 -23 -43 -67 0
-33 4 -45 13 -41 99 44 249 100 312 117 44 12 86 24 93 26 7 2 12 21 12 49 0
43 -1 45 -27 44 -16 0 -93 -24 -173 -53z"/>
<path d="M12315 21960 c-55 -16 -145 -47 -200 -69 -54 -23 -100 -41 -102 -41
-2 0 -3 -25 -3 -56 0 -41 3 -55 13 -51 6 3 46 20 87 38 41 18 131 52 200 75
l125 42 3 46 c2 33 -1 46 -10 45 -7 0 -58 -13 -113 -29z"/>
<path d="M10194 21345 c-18 -34 -18 -35 2 -62 37 -50 97 -39 109 19 6 27 3 36
-19 55 -40 34 -69 30 -92 -12z"/>
<path d="M11841 20691 c-14 -20 -21 -45 -21 -77 l0 -49 27 28 27 27 28 -27 28
-27 0 51 c0 36 -6 58 -21 77 -26 34 -43 33 -68 -3z"/>
<path d="M9899 18893 c-77 -89 -119 -231 -119 -412 l0 -114 43 -41 c23 -23 55
-57 70 -76 19 -24 26 -29 23 -15 -16 62 -25 245 -16 328 10 95 34 192 50 202
13 8 69 -78 93 -143 27 -75 34 -264 14 -374 -7 -43 -12 -78 -11 -78 1 0 30 39
64 87 l63 87 -7 81 c-19 221 -91 396 -200 479 l-34 26 -33 -37z"/>
<path d="M11810 20245 c-52 -53 -55 -58 -57 -112 l-2 -57 52 52 c29 29 57 52
63 52 5 0 32 -22 59 -50 27 -27 53 -50 57 -50 4 0 8 24 8 53 0 51 -2 55 -58
110 -32 31 -60 57 -63 57 -2 0 -29 -25 -59 -55z"/>
<path d="M11766 19558 c-3 -29 -2 -70 3 -91 12 -48 54 -111 86 -125 21 -10 28
-7 55 18 46 43 70 104 70 183 l0 67 -104 0 -104 0 -6 -52z"/>
<path d="M13314 19221 c-65 -29 -144 -109 -144 -145 0 -3 30 11 68 32 66 36
69 37 176 37 l110 0 7 28 c6 22 3 33 -12 48 -26 26 -146 27 -205 0z"/>
<path d="M14110 19222 c-21 -17 -22 -21 -9 -48 l14 -29 187 -3 c159 -2 188 0
202 13 21 22 20 41 -4 65 -18 18 -33 20 -194 20 -153 0 -176 -2 -196 -18z"/>
<path d="M13304 19039 c-23 -11 -60 -36 -82 -55 -42 -36 -88 -101 -79 -111 3
-3 32 10 64 28 85 50 88 51 208 58 104 6 110 7 122 31 12 22 10 27 -13 48 -21
19 -36 22 -102 22 -56 -1 -88 -7 -118 -21z"/>
<path d="M14197 19043 c-14 -14 -6 -50 16 -71 21 -20 34 -22 149 -22 144 0
178 8 178 43 0 50 -23 57 -187 57 -82 0 -153 -3 -156 -7z"/>
<path d="M13264 18830 c-52 -29 -109 -87 -144 -147 -11 -18 -16 -33 -11 -33 4
0 35 18 69 40 109 70 118 73 218 71 123 -2 162 16 144 65 -7 17 -20 22 -71 27
-116 13 -150 9 -205 -23z"/>
<path d="M14290 18845 c-13 -16 -17 -61 -6 -73 4 -3 64 -9 134 -12 140 -6 158
0 146 50 -11 47 -19 50 -144 50 -92 0 -120 -3 -130 -15z"/>
<path d="M14430 18663 c-72 -4 -90 -14 -90 -49 0 -42 36 -55 146 -52 98 3 99
3 102 29 4 33 -25 66 -63 71 -16 3 -59 3 -95 1z"/>
<path d="M13252 18634 c-55 -28 -122 -96 -153 -156 -11 -21 -17 -38 -13 -38 3
0 40 25 81 55 93 68 130 78 242 70 76 -6 89 -5 110 12 19 16 22 25 16 51 l-7
32 -112 0 c-100 0 -117 -3 -164 -26z"/>
<path d="M13271 18459 c-50 -16 -75 -32 -116 -72 -47 -48 -112 -143 -104 -152
2 -2 31 17 63 41 122 92 132 96 278 101 79 2 137 8 145 15 17 14 9 58 -14 76
-27 20 -177 14 -252 -9z"/>
<path d="M14470 18470 c-64 -5 -65 -5 -68 -36 -5 -47 18 -59 117 -61 91 -2
111 6 111 42 0 45 -53 63 -160 55z"/>
<path d="M13234 18266 c-62 -29 -140 -107 -179 -178 -16 -29 -22 -48 -14 -42
8 6 41 31 74 56 101 76 107 78 263 78 122 0 141 2 155 18 10 10 17 29 17 41 0
35 -53 51 -167 51 -82 0 -106 -4 -149 -24z"/>
<path d="M14492 18283 c-20 -3 -38 -13 -47 -27 -34 -51 15 -79 126 -74 l74 3
3 37 c5 60 -35 76 -156 61z"/>
<path d="M13256 18075 c-59 -21 -145 -84 -188 -139 -42 -52 -82 -125 -75 -132
3 -3 36 24 75 59 38 36 92 78 118 93 47 28 53 29 185 29 153 0 172 7 167 59
-2 25 -9 32 -33 37 -56 12 -209 8 -249 -6z"/>
<path d="M14498 18083 c-23 -4 -28 -9 -28 -33 0 -46 40 -70 116 -70 54 0 65 3
78 22 38 54 6 89 -80 87 -32 -1 -71 -4 -86 -6z"/>
<path d="M14520 17903 c-36 -15 -40 -63 -8 -93 18 -16 35 -20 93 -20 42 0 76
5 83 12 20 20 14 64 -11 81 -24 16 -133 30 -157 20z"/>
<path d="M13255 17888 c-52 -18 -133 -78 -173 -126 -37 -45 -102 -150 -102
-166 0 -4 29 19 65 51 36 33 100 79 143 103 l77 44 130 6 130 5 13 28 c12 25
12 31 -4 48 -15 17 -31 19 -133 18 -64 0 -129 -5 -146 -11z"/>
<path d="M11828 18964 c-34 -18 -37 -50 -7 -88 38 -49 109 -23 109 40 0 22
-42 64 -64 64 -6 -1 -23 -8 -38 -16z"/>
<path d="M14020 16191 c0 -103 -2 -210 -5 -237 l-6 -49 37 70 c51 96 93 199
109 267 13 58 13 58 -13 77 -28 19 -107 61 -117 61 -3 0 -5 -85 -5 -189z"/>
<path d="M14226 16062 c-15 -48 -35 -111 -45 -139 l-19 -53 27 19 c14 11 38
32 53 48 30 32 118 163 118 176 0 5 -13 6 -28 2 -20 -4 -36 0 -54 14 l-26 21
-26 -88z"/>
<path d="M14560 16112 c0 -30 -73 -122 -159 -200 -71 -64 -125 -132 -105 -132
10 0 181 97 254 145 67 43 190 150 190 166 0 5 -12 9 -27 9 -16 0 -53 7 -83
15 -70 19 -70 19 -70 -3z"/>
<path d="M13695 15509 c-292 -238 -902 -357 -1347 -264 -135 29 -129 12 8 -24
139 -35 263 -52 434 -58 249 -9 419 20 590 99 96 44 292 187 340 248 18 22 30
40 28 40 -1 -1 -25 -19 -53 -41z"/>
<path d="M10654 15486 c24 -30 45 -59 47 -65 3 -8 34 -8 114 0 142 14 411 14
545 -1 87 -9 463 -75 550 -96 14 -3 23 -3 20 0 -8 7 -516 167 -565 177 -118
25 -307 39 -523 39 l-232 0 44 -54z"/>
<path d="M10400 15517 c0 -3 15 -14 34 -25 42 -25 65 -58 77 -111 12 -52 -1
-85 -54 -139 l-42 -43 29 -51 c34 -61 37 -108 8 -164 -44 -87 -137 -147 -269
-173 -81 -17 -83 -18 -64 -35 27 -25 105 -46 165 -46 135 2 247 92 282 230 17
68 12 144 -13 193 -13 25 -13 31 1 46 44 48 60 160 32 224 -25 58 -69 90 -131
95 -30 2 -55 2 -55 -1z"/>
<path d="M10303 15368 c-78 -68 -242 -128 -347 -128 -20 0 -36 -4 -36 -10 0
-33 244 -52 333 -26 108 31 193 146 145 194 -21 21 -45 13 -95 -30z"/>
<path d="M10726 15297 c-19 -72 -23 -103 -15 -113 22 -27 99 -34 277 -28 188
7 256 -2 339 -44 l36 -19 -114 -56 c-147 -72 -248 -101 -359 -100 -63 0 -99 5
-139 21 -51 20 -55 20 -67 4 -20 -26 -18 -28 44 -51 203 -74 301 -68 572 37
85 33 181 65 213 72 l58 13 -38 39 c-20 21 -86 71 -147 110 l-109 73 -111 0
c-61 0 -149 -4 -196 -9 -97 -9 -147 0 -204 39 -25 17 -38 21 -40 12z"/>
<path d="M9904 15160 c-28 -11 -64 -58 -64 -84 0 -11 9 -36 20 -54 54 -89 190
-57 190 45 0 22 -6 47 -13 57 -13 17 -16 15 -49 -23 -19 -22 -38 -41 -41 -41
-4 0 -7 19 -7 43 0 53 -9 67 -36 57z"/>
<path d="M10725 15091 c-3 -14 -8 -34 -11 -43 -4 -13 6 -20 47 -32 76 -23 110
-20 244 24 104 33 116 39 92 45 -16 4 -72 4 -125 0 -126 -11 -159 -8 -204 14
l-37 18 -6 -26z"/>
<path d="M11703 13964 c-8 -22 13 -86 39 -119 22 -28 82 -60 97 -50 27 16 -33
136 -83 166 -38 23 -45 23 -53 3z"/>
<path d="M11902 13927 c6 -55 38 -102 74 -111 37 -10 45 3 33 49 -13 47 -20
56 -73 85 l-39 21 5 -44z"/>
<path d="M11765 13714 c-38 -20 -55 -42 -55 -70 0 -26 22 -37 53 -25 32 12 47
33 54 75 6 41 -3 45 -52 20z"/>
<path d="M11891 13679 c-35 -35 -40 -65 -11 -74 40 -13 100 41 100 90 0 28
-56 18 -89 -16z"/>
<path d="M8205 14814 c-22 -19 -166 -120 -320 -224 -154 -104 -320 -221 -370
-260 -49 -39 -161 -121 -247 -181 l-158 -111 0 -1014 c0 -897 2 -1014 15
-1014 8 0 90 55 183 123 306 226 749 533 828 575 19 10 33 2 130 -79 1312
-1096 2965 -1531 4629 -1218 978 184 1911 634 2620 1265 l86 76 27 -18 c15
-10 176 -122 357 -249 472 -332 656 -457 661 -452 3 2 5 452 5 998 l0 994 -28
22 c-15 13 -246 176 -513 364 -267 188 -515 363 -551 389 l-66 48 -43 -75
c-255 -449 -682 -914 -1145 -1250 -365 -264 -722 -445 -1167 -591 -288 -95
-520 -147 -818 -184 -167 -21 -740 -17 -915 5 -709 92 -1309 318 -1896 714
-307 208 -773 665 -964 947 -41 61 -107 154 -145 206 -39 52 -85 124 -103 159
-18 36 -37 66 -42 67 -6 2 -28 -12 -50 -32z m45 -450 c270 -398 667 -805 1052
-1082 141 -100 393 -254 563 -343 461 -241 947 -386 1530 -456 214 -25 787
-25 995 0 418 52 727 131 1100 280 365 146 715 342 1023 574 368 278 712 631
962 988 42 61 80 116 85 124 6 11 17 7 56 -20 36 -24 659 -467 682 -484 5 -4
-93 -143 -185 -262 -299 -386 -694 -777 -1068 -1056 -786 -587 -1640 -922
-2635 -1032 -198 -22 -717 -31 -935 -16 -1480 104 -2870 845 -3754 2001 -100
131 -271 377 -271 390 0 5 116 86 258 181 141 94 271 184 287 199 51 48 159
129 170 126 6 -1 44 -52 85 -112z m8146 -1304 c0 -314 -3 -569 -6 -568 -27 11
-599 415 -600 423 0 6 21 31 46 55 111 107 366 405 519 607 22 29 40 52 41 53
0 0 0 -257 0 -570z m-8944 423 c111 -143 211 -259 375 -431 80 -84 144 -154
142 -156 -26 -20 -591 -416 -594 -416 -3 0 -5 248 -5 550 0 303 2 550 4 550 1
0 37 -44 78 -97z"/>
<path d="M8270 13950 c13 -23 -4 -69 -128 -342 -44 -98 -77 -178 -73 -178 5 0
113 36 242 81 173 60 242 79 267 75 l33 -5 -20 27 c-11 15 -33 43 -50 62 l-30
35 2 -38 2 -39 -159 -59 c-88 -33 -163 -58 -167 -57 -4 2 27 76 68 166 78 167
88 179 125 145 10 -9 21 -14 24 -11 6 7 -125 158 -137 158 -6 0 -5 -9 1 -20z"/>
<path d="M15300 13778 c0 -12 45 -114 150 -339 59 -125 69 -153 59 -170 -21
-41 -1 -29 50 27 28 32 48 60 46 63 -3 2 -11 -1 -17 -7 -26 -26 -49 -13 -74
44 -14 31 -24 60 -22 65 2 4 29 39 61 78 l58 69 35 -14 c118 -49 108 -41 90
-69 -9 -14 -12 -25 -7 -25 11 0 131 134 131 146 0 4 -5 3 -12 -4 -21 -21 -58
-13 -278 59 -118 38 -227 74 -242 79 -19 6 -28 5 -28 -2z m197 -130 l83 -30
-53 -63 c-28 -35 -56 -63 -61 -61 -5 1 -28 46 -52 100 -49 111 -59 105 83 54z"/>
<path d="M14944 13412 c-66 -59 -138 -122 -158 -140 l-38 -33 38 -49 c38 -49
63 -67 48 -32 -4 9 -9 33 -12 53 -3 31 1 41 34 73 20 20 41 36 45 36 4 0 69
-69 143 -152 141 -159 154 -182 119 -220 -37 -41 8 -14 80 48 75 65 103 101
51 67 l-26 -17 -105 110 c-57 60 -127 134 -154 166 l-49 56 42 36 c46 40 88
47 126 20 12 -8 22 -10 22 -5 0 12 -69 91 -79 90 -3 0 -60 -48 -127 -107z"/>
<path d="M8745 13447 c17 -26 17 -28 -1 -54 -20 -31 -230 -271 -254 -290 -19
-16 -63 -16 -78 -1 -6 6 -14 9 -17 6 -7 -7 149 -148 165 -148 7 0 3 11 -9 26
-17 22 -19 30 -8 49 18 35 277 315 291 315 6 0 23 -7 36 -17 33 -21 -54 70
-104 110 -39 31 -39 31 -21 4z"/>
<path d="M14527 13073 c-87 -65 -104 -85 -54 -62 14 6 32 9 40 6 16 -6 232
-296 250 -335 8 -18 6 -28 -13 -55 l-24 -32 54 40 c97 69 131 97 125 103 -3 3
-11 0 -17 -6 -32 -32 -53 -14 -166 142 -140 193 -142 197 -113 236 12 17 18
30 14 30 -4 0 -48 -30 -96 -67z"/>
<path d="M9060 12989 c-189 -122 -285 -172 -316 -166 -38 7 -28 -7 31 -47 59
-39 89 -48 62 -18 -10 10 -17 23 -17 28 0 12 90 77 106 77 21 0 164 -107 163
-122 0 -9 -8 -38 -17 -66 -17 -48 -19 -50 -52 -47 -34 3 -32 1 45 -56 44 -33
81 -58 83 -57 2 2 -2 12 -9 23 -11 18 -5 60 39 279 57 280 55 273 45 272 -5 0
-78 -45 -163 -100z m60 -99 c-13 -55 -27 -99 -31 -98 -4 2 -35 25 -69 51 l-62
49 88 53 c49 30 90 52 92 50 3 -2 -6 -49 -18 -105z"/>
<path d="M14238 12884 c-38 -19 -68 -39 -68 -45 0 -6 7 -8 15 -5 8 3 21 9 29
12 27 10 45 -51 62 -201 9 -81 13 -149 11 -152 -5 -4 -177 121 -266 193 l-33
28 26 23 c15 13 22 23 17 23 -16 0 -171 -84 -171 -92 0 -5 14 -8 31 -8 25 0
75 -32 239 -154 115 -85 210 -153 212 -151 2 2 -10 119 -26 261 -24 209 -27
260 -17 276 7 11 11 21 9 23 -2 2 -33 -12 -70 -31z"/>
<path d="M9828 12687 c21 -23 22 -30 22 -285 0 -143 4 -263 8 -266 5 -3 24 11
43 30 19 20 105 103 192 186 125 119 161 148 177 143 11 -4 20 -3 20 2 0 10
-139 68 -146 60 -3 -3 4 -8 15 -12 45 -14 25 -48 -100 -171 -66 -65 -122 -121
-125 -123 -2 -2 -4 82 -4 188 l0 193 38 -5 c30 -5 19 3 -53 38 -103 51 -117
54 -87 22z"/>
<path d="M13370 12476 c0 -17 -31 -26 -89 -26 -87 0 -138 -58 -128 -146 7 -68
41 -97 141 -124 110 -30 155 -49 166 -71 34 -62 -16 -139 -90 -139 -50 0 -73
11 -121 57 -52 49 -56 27 -13 -58 36 -72 36 -73 53 -50 13 17 29 22 73 25 130
8 212 111 163 206 -24 46 -58 66 -165 95 -113 31 -145 51 -155 96 -9 38 11 62
65 78 49 14 92 -1 138 -50 17 -18 33 -31 36 -29 7 7 -55 150 -65 150 -5 0 -9
-6 -9 -14z"/>
<path d="M10434 12448 c-3 -4 6 -12 20 -18 17 -6 26 -17 26 -30 0 -22 -93
-357 -110 -397 -6 -15 -19 -23 -42 -25 -24 -2 18 -18 163 -60 108 -32 199 -58
202 -58 5 0 67 106 67 115 0 14 -25 2 -52 -25 -29 -29 -45 -34 -98 -31 -32 3
-148 40 -155 50 -5 10 43 182 55 195 8 8 135 -29 158 -47 6 -5 12 -25 12 -43
0 -57 17 -38 35 39 9 39 19 81 22 92 4 15 -2 11 -25 -13 -20 -22 -38 -32 -49
-28 -10 2 -47 12 -83 22 -36 9 -67 18 -68 20 -2 1 9 41 24 88 32 98 29 97 134
65 87 -26 101 -37 110 -85 l7 -39 12 30 c34 82 44 74 -169 136 -105 31 -193
52 -196 47z"/>
<path d="M12710 12113 c-45 -219 -73 -311 -96 -320 -35 -13 -8 -18 56 -10 39
6 70 14 70 18 0 5 -9 9 -20 9 -28 0 -34 23 -24 88 l9 56 85 18 c47 9 92 17
100 17 20 0 71 -75 73 -107 2 -19 -4 -27 -23 -33 -58 -16 57 -4 149 17 l25 5
-25 12 c-13 7 -91 107 -172 222 -81 116 -151 211 -156 213 -4 1 -27 -91 -51
-205z m109 5 c28 -42 51 -81 51 -86 0 -9 -148 -39 -153 -31 -7 9 36 210 43
202 4 -4 30 -43 59 -85z"/>
<path d="M11000 12302 c0 -5 14 -15 30 -21 17 -5 30 -16 30 -24 0 -42 -53
-403 -61 -419 -5 -10 -21 -18 -34 -18 -14 0 -25 -4 -25 -8 0 -4 47 -15 105
-23 79 -12 105 -12 105 -3 0 6 -13 14 -29 17 -37 8 -41 20 -30 92 19 126 19
126 41 123 14 -2 40 -39 90 -128 38 -69 72 -128 76 -131 13 -12 122 -20 122
-9 0 5 -7 10 -14 10 -8 0 -26 15 -39 33 -26 35 -127 211 -127 221 0 3 14 6 30
6 70 0 110 45 110 124 0 82 -63 122 -230 145 -47 7 -100 14 -117 18 -20 3 -33
1 -33 -5z m250 -70 c48 -24 67 -60 55 -108 -13 -50 -51 -76 -117 -81 -79 -6
-80 -3 -61 110 l16 97 36 0 c20 0 52 -8 71 -18z"/>
<path d="M12255 12244 c-82 -7 -169 -13 -192 -13 l-43 -1 0 -49 c0 -54 7 -81
21 -81 5 0 9 7 9 15 0 9 7 29 15 45 12 22 25 31 67 39 28 7 55 8 58 4 10 -11
42 -421 35 -433 -4 -6 -21 -17 -38 -25 l-32 -15 40 5 c22 2 74 7 115 11 69 7
73 8 42 17 -39 12 -38 10 -52 197 -6 80 -13 171 -17 203 l-6 57 60 0 c65 0 82
-11 102 -63 14 -36 34 -36 27 1 -3 15 -8 44 -12 65 -5 30 -10 37 -28 36 -11
-1 -88 -8 -171 -15z"/>
<path d="M11640 12231 c0 -6 13 -14 30 -17 17 -4 32 -15 36 -26 6 -21 -4 -391
-12 -420 -3 -10 -20 -22 -37 -27 l-32 -9 36 -1 c20 -1 70 -4 112 -7 55 -5 77
-4 77 5 0 6 -9 11 -20 11 -11 0 -28 8 -39 19 -17 17 -18 33 -13 212 2 107 8
203 12 213 4 11 22 25 41 32 32 12 29 13 -47 13 -45 1 -96 4 -113 7 -20 4 -31
3 -31 -5z"/>
<path d="M14871 9074 c-126 -34 -219 -95 -287 -187 -60 -81 -86 -167 -86 -287
0 -120 26 -206 85 -287 72 -97 161 -157 372 -248 201 -87 260 -122 315 -182
139 -152 87 -360 -109 -434 -72 -27 -188 -22 -274 11 -116 44 -222 172 -289
348 l-31 82 -54 0 -53 0 2 -272 3 -273 56 -3 56 -3 22 76 22 76 46 -41 c103
-90 240 -135 413 -133 191 1 334 52 451 160 99 92 152 222 152 373 0 158 -45
263 -159 368 -87 81 -189 140 -394 228 -85 37 -180 83 -210 103 -143 94 -159
272 -33 368 112 83 313 60 442 -53 55 -48 116 -140 138 -210 l17 -54 53 0 53
0 0 73 c0 39 -3 143 -7 230 l-6 157 -57 0 c-53 0 -58 -2 -64 -25 -3 -13 -11
-36 -16 -51 l-11 -27 -27 25 c-38 36 -121 76 -194 93 -81 19 -265 18 -337 -1z"/>
<path d="M3510 9015 l0 -43 54 -6 c78 -10 136 -43 160 -91 20 -38 21 -61 27
-545 6 -518 7 -531 50 -647 68 -183 214 -298 437 -345 130 -28 380 -30 497 -4
192 42 335 146 408 296 69 141 70 145 77 660 8 524 10 543 79 611 33 34 65 48
144 64 25 5 27 9 27 50 l0 44 -305 0 -305 0 0 -44 0 -43 50 -12 c68 -16 127
-62 151 -115 32 -72 41 -226 36 -628 -4 -403 -7 -423 -63 -526 -49 -91 -128
-150 -249 -187 -91 -28 -287 -26 -381 4 -132 41 -211 139 -239 298 -18 97 -21
952 -4 1024 21 90 92 140 201 140 l38 0 0 45 0 44 -445 0 -445 0 0 -44z"/>
<path d="M5660 9014 c0 -40 3 -44 28 -49 92 -19 108 -28 170 -92 l63 -65 -3
-606 -3 -607 -25 -45 c-31 -55 -75 -85 -146 -101 l-54 -12 0 -46 0 -46 305 0
305 0 0 46 0 46 -42 7 c-114 18 -177 83 -198 204 -8 46 -10 216 -8 531 l3 464
588 -672 588 -672 67 3 67 3 5 760 c3 418 9 769 13 780 22 52 32 64 66 83 20
11 54 23 76 27 75 13 75 13 75 60 l0 44 -305 0 -305 0 0 -44 0 -44 56 -11 c43
-9 67 -22 100 -52 75 -69 77 -84 81 -528 3 -212 3 -410 1 -440 l-3 -54 -513
586 -514 587 -269 0 -269 0 0 -45z"/>
<path d="M7760 9016 l0 -43 60 -6 c88 -10 137 -38 163 -95 22 -46 22 -57 25
-626 2 -360 -1 -604 -7 -645 -17 -106 -65 -150 -176 -159 l-65 -5 0 -46 0 -46
445 0 445 0 0 46 0 46 -69 5 c-85 6 -129 30 -156 83 -19 38 -20 63 -23 645 -2
400 1 622 8 654 15 72 50 112 112 131 28 8 69 15 90 15 l38 0 0 44 0 45 -445
0 -445 0 0 -43z"/>
<path d="M8770 9015 c0 -41 3 -45 28 -51 98 -21 138 -38 168 -69 23 -25 66
-122 173 -391 78 -198 217 -547 308 -776 l166 -418 62 0 62 0 293 713 c161
391 307 739 323 772 50 102 101 145 197 166 l50 11 0 43 0 44 -320 0 -320 0 0
-43 0 -43 59 -7 c65 -7 118 -36 139 -76 21 -39 7 -142 -39 -291 -49 -160 -299
-783 -310 -772 -15 16 -330 862 -350 942 -34 137 -3 183 132 197 l69 7 0 43 0
43 -445 0 -445 0 0 -44z"/>
<path d="M10730 9015 l0 -42 66 -6 c78 -8 121 -30 149 -77 19 -34 20 -52 23
-663 2 -418 -1 -641 -8 -667 -22 -80 -82 -120 -184 -120 l-46 0 0 -47 0 -48
757 0 757 0 2 248 2 247 -53 0 -52 0 -18 -66 c-44 -161 -116 -248 -239 -287
-58 -18 -94 -22 -201 -22 -151 0 -206 15 -254 71 -49 56 -55 94 -56 374 l0
255 70 -3 c39 -2 87 -8 108 -13 77 -20 137 -99 168 -222 l12 -48 49 3 49 3 0
340 0 340 -49 3 -49 3 -7 -52 c-20 -150 -101 -217 -279 -234 l-79 -7 4 315 c2
223 6 319 15 328 20 20 189 32 288 21 119 -14 193 -43 249 -96 52 -51 74 -89
96 -171 l17 -60 58 -3 57 -3 -6 168 c-4 92 -9 194 -12 225 l-6 58 -699 -1
-699 -1 0 -43z"/>
<path d="M12480 9016 l0 -43 66 -6 c78 -8 121 -30 149 -77 19 -34 20 -52 23
-655 2 -426 0 -636 -8 -671 -18 -84 -76 -124 -182 -124 l-48 0 0 -47 0 -48
442 1 443 0 0 45 0 44 -69 7 c-155 15 -179 79 -174 463 l3 200 29 3 c15 2 41
-2 57 -8 55 -23 185 -178 391 -466 l207 -289 258 1 258 1 3 44 3 45 -50 13
c-67 17 -129 74 -235 215 -46 61 -161 206 -254 321 l-171 210 67 21 c151 47
250 123 304 232 31 63 33 73 32 172 0 85 -4 116 -23 162 -33 84 -107 160 -195
202 -144 69 -159 70 -773 73 l-553 3 0 -44z m935 -92 c66 -23 127 -85 155
-159 33 -87 34 -264 1 -349 -49 -125 -140 -175 -335 -184 l-118 -5 3 340 c4
371 4 368 62 376 55 8 182 -3 232 -19z"/>
<path d="M15900 9016 l0 -43 62 -7 c110 -11 162 -62 173 -169 3 -34 5 -325 3
-647 -3 -562 -4 -587 -23 -625 -26 -52 -89 -85 -162 -85 l-53 0 0 -47 0 -48
440 0 440 0 0 48 0 47 -47 0 c-102 0 -161 37 -182 115 -14 50 -15 1221 -1
1279 18 81 71 122 168 132 l62 7 0 43 0 43 -440 0 -440 0 0 -43z"/>
<path d="M16950 8982 c0 -44 -3 -154 -7 -245 l-6 -167 55 0 55 0 13 58 c39
176 125 274 264 302 72 15 210 5 244 -16 l22 -14 0 -658 c0 -402 -4 -671 -10
-693 -20 -70 -89 -109 -197 -109 l-53 0 0 -47 0 -48 465 0 465 0 0 46 0 46
-74 5 c-86 6 -131 27 -161 78 -19 34 -20 52 -23 712 l-3 677 26 17 c36 23 198
14 278 -16 111 -42 195 -149 220 -281 l11 -59 59 0 59 0 -6 83 c-3 45 -9 155
-12 245 l-7 162 -838 0 -839 0 0 -78z"/>
<path d="M18772 9013 c3 -46 3 -46 52 -58 28 -7 60 -24 76 -41 16 -16 142
-229 280 -474 l252 -445 -4 -220 c-3 -199 -5 -223 -23 -255 -28 -49 -94 -80
-167 -80 l-58 0 0 -47 0 -48 450 0 450 0 0 46 0 46 -68 5 c-86 6 -126 27 -154
81 -21 39 -23 57 -26 278 l-4 236 242 409 c259 439 298 492 378 514 41 11 42
12 42 55 l0 44 -280 0 -280 -1 0 -44 c0 -38 3 -44 21 -44 44 0 110 -23 134
-47 64 -64 21 -180 -202 -540 -69 -112 -127 -203 -128 -201 -12 13 -304 555
-322 598 -29 71 -29 111 0 137 33 31 58 41 115 49 l52 7 0 43 0 43 -416 0
-415 0 3 -46z"/>
<path d="M13015 6216 c-82 -19 -128 -39 -187 -83 -115 -84 -224 -261 -288
-470 l-32 -103 -103 0 -103 0 -16 -47 c-9 -26 -16 -48 -16 -50 0 -2 50 -3 111
-3 l111 0 -7 -27 c-4 -16 -58 -246 -121 -513 -161 -683 -239 -988 -260 -1011
-31 -35 -104 -21 -104 20 0 36 -22 90 -46 115 -21 20 -37 26 -71 26 -38 0 -51
-6 -78 -33 -47 -47 -54 -94 -23 -154 29 -58 89 -92 175 -100 208 -19 377 117
494 398 18 44 89 313 175 664 79 325 146 596 149 603 3 9 38 12 124 12 l120 0
14 48 14 47 -123 3 c-90 2 -124 6 -124 15 0 26 89 375 110 429 25 67 76 118
119 118 32 0 68 -36 101 -101 35 -67 101 -94 162 -65 64 30 91 124 53 182 -47
72 -201 109 -330 80z"/>
<path d="M11570 5585 c-233 -64 -417 -261 -482 -517 -27 -108 -22 -275 11
-358 68 -171 213 -264 410 -263 323 2 621 311 639 663 8 170 -34 287 -138 383
-82 76 -145 99 -280 104 -71 2 -123 -2 -160 -12z m242 -104 c54 -60 58 -141
17 -355 -39 -207 -121 -418 -195 -505 -102 -118 -238 -103 -275 31 -22 84 9
261 91 508 87 261 173 367 290 356 34 -3 51 -11 72 -35z"/>
<path d="M5975 2826 c-181 -35 -317 -107 -446 -235 -102 -102 -167 -206 -209
-338 -43 -133 -53 -217 -47 -378 6 -167 22 -235 87 -370 135 -281 416 -444
765 -445 128 0 195 13 401 80 100 33 226 67 281 76 54 9 108 18 119 20 22 4
22 8 26 211 2 142 7 215 16 230 17 30 63 53 107 53 l35 0 0 50 0 50 -385 0
-385 0 0 -49 0 -48 55 -6 c118 -12 155 -61 155 -203 0 -125 -20 -187 -79 -245
-59 -59 -120 -79 -246 -79 -185 0 -305 68 -400 225 -151 253 -152 757 -2 1040
46 86 131 168 214 208 66 31 72 32 198 32 128 0 131 -1 200 -34 44 -22 90 -55
125 -91 57 -57 127 -178 151 -257 l12 -43 60 0 59 0 -6 73 c-3 39 -8 163 -12
275 l-7 202 -58 0 -58 0 -21 -70 c-11 -38 -23 -70 -25 -70 -2 0 -24 14 -49 30
-60 41 -120 67 -213 91 -101 27 -317 34 -418 15z"/>
<path d="M9781 2818 c-5 -13 -104 -252 -221 -533 -117 -280 -248 -597 -291
-703 -82 -199 -123 -274 -180 -329 -38 -36 -96 -63 -134 -63 -23 0 -25 -3 -25
-47 l0 -48 310 0 311 0 -3 44 -3 45 -67 12 c-78 15 -99 25 -127 60 -34 43 -28
106 25 249 l46 125 290 -2 290 -3 45 -119 c60 -162 69 -206 49 -244 -19 -37
-68 -60 -145 -68 l-61 -7 0 -46 0 -46 440 0 440 0 0 47 c0 40 -3 48 -18 48
-41 0 -125 33 -158 62 -53 47 -110 174 -409 921 l-268 667 -64 0 c-57 0 -64
-2 -72 -22z m58 -777 c59 -154 106 -283 103 -286 -8 -8 -462 -6 -462 3 -1 4
52 139 117 299 76 191 120 288 125 279 4 -8 57 -140 117 -295z"/>
<path d="M11331 2825 c-175 -38 -312 -155 -365 -310 -24 -71 -31 -191 -16
-267 40 -204 185 -333 521 -462 98 -37 196 -91 237 -129 52 -48 76 -105 80
-191 4 -74 1 -86 -25 -136 -32 -62 -96 -112 -166 -131 -71 -19 -213 -7 -280
23 -113 53 -208 168 -272 332 l-31 81 -47 3 -47 3 0 -270 0 -271 53 0 52 0 19
65 c10 36 20 65 22 65 2 0 25 -16 51 -37 304 -232 811 -144 968 169 44 90 59
163 52 273 -8 151 -65 262 -184 360 -68 56 -179 115 -407 216 -228 101 -287
157 -294 279 -5 82 19 136 78 179 54 39 115 54 207 50 89 -5 159 -33 230 -94
52 -44 114 -139 143 -216 l22 -59 56 0 55 0 -7 53 c-3 28 -6 134 -6 235 l0
182 -59 0 -59 0 -17 -50 -17 -51 -31 21 c-57 38 -134 70 -204 85 -84 18 -227
18 -312 0z"/>
<path d="M13127 2830 c-344 -62 -588 -282 -694 -626 -26 -84 -27 -100 -27
-279 0 -178 2 -195 27 -278 110 -358 388 -563 787 -584 148 -7 206 3 439 78
102 33 228 67 280 75 53 9 106 18 118 20 21 4 21 8 25 211 2 149 7 215 16 231
16 29 69 52 117 52 l35 0 0 50 0 50 -390 0 -390 0 0 -49 0 -48 54 -6 c65 -6
110 -28 133 -64 15 -22 18 -49 18 -148 0 -109 -2 -125 -27 -177 -48 -103 -145
-144 -325 -136 -87 3 -108 8 -165 36 -195 96 -308 353 -308 702 0 289 79 532
215 659 86 80 147 103 285 109 116 4 191 -13 273 -65 94 -59 179 -179 222
-310 l17 -53 55 0 55 0 -5 43 c-4 23 -9 147 -13 275 l-7 232 -53 0 -53 0 -21
-70 c-11 -38 -23 -70 -26 -70 -3 0 -18 8 -32 19 -53 37 -156 83 -231 103 -86
22 -322 33 -404 18z"/>
<path d="M15215 2830 c-328 -51 -580 -225 -705 -485 -67 -139 -85 -219 -85
-385 0 -252 69 -438 223 -602 196 -207 467 -309 786 -295 393 17 716 222 845
534 51 125 66 205 66 358 0 171 -17 248 -85 390 -84 174 -212 300 -396 391
-138 68 -258 95 -439 99 -82 2 -177 0 -210 -5z m379 -154 c81 -40 139 -95 191
-181 161 -268 163 -848 4 -1097 -39 -61 -115 -130 -175 -161 -74 -37 -148 -50
-261 -45 -92 3 -107 7 -176 41 -171 85 -269 282 -297 599 -29 328 41 625 182
770 123 127 360 160 532 74z"/>
<path d="M7240 2774 l0 -42 72 -10 c79 -12 113 -31 143 -83 19 -33 20 -52 20
-684 0 -632 -1 -651 -20 -684 -33 -56 -67 -75 -145 -79 l-70 -4 0 -47 0 -46
775 -2 775 -2 0 98 c0 54 3 166 7 250 l6 152 -53 -3 -54 -3 -26 -75 c-15 -41
-38 -93 -52 -115 -29 -47 -93 -107 -138 -130 -85 -44 -325 -60 -429 -29 -71
21 -126 72 -148 138 -15 45 -17 114 -21 578 -2 320 1 555 7 599 15 113 56 154
169 171 l72 10 0 42 0 41 -445 0 -445 0 0 -41z"/>
<path d="M16382 2771 c3 -44 4 -45 50 -57 60 -15 106 -42 125 -74 8 -14 135
-374 282 -800 l268 -775 65 -3 64 -3 194 562 c173 501 195 559 205 536 6 -14
94 -267 195 -562 l185 -535 60 2 59 3 251 755 c138 415 259 772 269 792 22 46
77 96 114 104 50 11 52 12 52 56 l0 43 -285 0 -285 0 0 -45 0 -46 58 -12 c140
-29 173 -93 137 -267 -31 -147 -206 -741 -234 -793 -5 -8 -91 234 -207 578
l-199 591 -64 -3 -64 -3 -181 -592 c-99 -326 -183 -593 -186 -593 -6 0 -241
731 -271 843 -47 175 -20 225 132 244 l64 8 3 45 3 46 -431 -1 -431 0 3 -44z"/>
</g>
</svg>
