<?xml version="1.0" standalone="no"?>
<!DOCTYPE svg PUBLIC "-//W3C//DTD SVG 20010904//EN"
 "http://www.w3.org/TR/2001/REC-SVG-20010904/DTD/svg10.dtd">
<svg version="1.0" xmlns="http://www.w3.org/2000/svg"
 width="218.000000pt" height="231.000000pt" viewBox="0 0 218.000000 231.000000"
 preserveAspectRatio="xMidYMid meet">

<g transform="translate(0.000000,231.000000) scale(0.100000,-0.100000)"
fill="#000000" stroke="none">
<path d="M637 2293 c-4 -3 -7 -11 -7 -17 0 -6 5 -4 10 4 8 13 10 12 10 -4 0
-15 3 -17 11 -9 6 6 8 16 5 22 -8 12 -20 14 -29 4z"/>
<path d="M873 2229 l36 -45 -29 -18 c-32 -18 -42 -43 -14 -32 13 5 14 4 6 -7
-18 -21 -1 -29 20 -10 10 9 21 13 25 10 3 -4 12 -2 20 4 9 8 13 8 13 0 0 -6
-13 -17 -30 -26 -32 -17 -41 -29 -13 -18 11 4 14 3 9 -5 -4 -7 -1 -12 9 -12
12 0 15 -5 10 -17 -5 -15 -4 -16 6 -5 18 17 34 15 19 -3 -11 -13 -10 -14 6 -9
16 6 17 5 7 -7 -11 -11 -20 -9 -58 9 l-45 22 -11 -22 c-9 -16 -13 -18 -20 -7
-7 12 -9 12 -9 -1 0 -10 -5 -7 -16 8 -15 22 -44 30 -44 12 0 -5 6 -10 13 -10
7 0 18 -9 24 -19 10 -16 9 -20 -9 -24 -20 -6 -20 -6 -1 -39 10 -18 28 -34 39
-36 15 -2 14 1 -8 18 -16 12 -28 29 -28 37 0 12 3 13 15 3 8 -6 20 -8 27 -4 8
5 8 1 -2 -11 -8 -10 -10 -16 -3 -12 12 8 83 -29 83 -43 0 -5 -12 -10 -27 -12
-31 -3 -44 -38 -23 -63 9 -11 7 -16 -9 -24 -11 -6 -28 -11 -39 -11 -11 0 -25
-7 -32 -15 -10 -12 -10 -15 4 -15 9 0 16 5 16 11 0 5 4 8 10 4 16 -10 83 23
77 39 -5 13 10 36 24 36 4 0 9 -10 13 -23 3 -12 19 -30 36 -40 18 -11 30 -26
30 -39 0 -21 0 -21 -16 -2 -14 18 -15 18 -4 -4 9 -19 8 -27 -4 -41 -14 -15
-14 -17 4 -18 11 -1 20 3 20 9 0 14 39 48 68 59 12 5 22 14 22 21 0 8 -3 9 -8
3 -12 -17 -52 -36 -62 -30 -6 4 -10 13 -10 22 0 9 -7 24 -16 34 -12 14 -13 22
-4 38 11 22 30 20 30 -4 0 -7 7 -16 16 -19 8 -3 12 -2 9 4 -3 6 0 10 7 10 9 0
14 12 15 33 0 19 -1 23 -4 10 -7 -37 -40 -29 -62 15 -11 21 -27 44 -35 51 -23
19 -20 41 9 71 36 38 44 106 15 143 -12 15 -28 27 -36 27 -8 0 -14 5 -14 11 0
5 -5 7 -11 3 -6 -3 -29 11 -52 32 l-40 39 36 -46z m37 -63 c0 -3 -4 -8 -10
-11 -5 -3 -10 -1 -10 4 0 6 5 11 10 11 6 0 10 -2 10 -4z m80 -280 c0 -3 -4 -8
-10 -11 -5 -3 -10 -1 -10 4 0 6 5 11 10 11 6 0 10 -2 10 -4z m-30 -46 c0 -5
-4 -10 -10 -10 -5 0 -10 5 -10 10 0 6 5 10 10 10 6 0 10 -4 10 -10z"/>
<path d="M410 2220 c0 -6 -4 -8 -10 -5 -5 3 -10 1 -10 -4 0 -13 10 -14 29 -2
9 6 10 11 2 15 -6 4 -11 2 -11 -4z"/>
<path d="M540 2210 c-6 -11 -8 -20 -6 -20 3 0 10 9 16 20 6 11 8 20 6 20 -3 0
-10 -9 -16 -20z"/>
<path d="M616 2220 c9 -8 63 -6 57 3 -2 4 -17 6 -33 5 -16 -1 -27 -5 -24 -8z"/>
<path d="M750 2210 c6 -11 13 -20 16 -20 2 0 0 9 -6 20 -6 11 -13 20 -16 20
-2 0 0 -9 6 -20z"/>
<path d="M368 2204 c9 -16 7 -22 -8 -32 -15 -9 -17 -17 -10 -44 4 -18 11 -46
15 -63 6 -29 7 -29 21 -11 23 32 16 8 -18 -63 -18 -36 -33 -70 -34 -76 -1 -9
-10 -49 -21 -87 -2 -10 -10 -18 -18 -18 -8 0 -16 -9 -20 -19 -7 -23 4 -71 16
-71 5 0 6 -6 3 -13 -3 -10 5 -12 31 -9 19 2 35 8 35 14 0 5 5 6 10 3 6 -3 10
-1 10 4 0 6 -6 11 -12 12 -7 1 -22 2 -33 3 -14 1 -21 9 -23 28 -3 21 3 30 27
43 33 17 51 43 51 74 0 12 4 21 9 21 14 0 23 -32 11 -44 -14 -14 -13 -20 15
-50 14 -15 25 -25 25 -22 0 2 12 1 28 -3 19 -6 31 -4 41 6 10 11 16 11 27 2
11 -9 15 -8 20 5 3 9 10 16 15 16 15 0 10 -22 -7 -35 -13 -9 -13 -12 -3 -13 8
0 32 -6 55 -13 24 -7 52 -9 70 -4 l29 7 -24 11 c-19 9 -25 9 -29 -1 -2 -6 -8
-12 -14 -12 -6 0 -6 6 2 15 10 12 9 15 -6 16 -18 0 -18 1 1 10 17 8 16 8 -7 4
-20 -4 -34 2 -61 27 -19 18 -36 39 -39 47 -3 9 -11 12 -22 8 -18 -7 -18 -19
-2 -58 10 -24 -46 -20 -73 5 -19 17 -20 21 -6 36 21 23 19 47 -5 62 -27 17
-25 25 5 30 14 3 25 1 25 -3 0 -5 6 -8 13 -6 7 1 11 -7 9 -23 -2 -22 2 -26 23
-26 19 0 26 6 31 31 11 52 34 86 67 100 59 25 117 -6 136 -73 9 -29 8 -32 -12
-33 -17 -1 -18 -2 -4 -6 29 -8 21 -51 -18 -90 -20 -20 -34 -37 -33 -39 2 -1
15 -5 30 -9 23 -6 30 -2 53 33 34 52 42 100 21 140 -9 17 -16 42 -16 56 0 14
-9 31 -19 38 -14 10 -18 22 -15 46 4 33 4 33 -51 36 -11 1 -19 7 -18 14 2 6
-2 12 -8 12 -5 0 -7 5 -4 10 3 6 1 10 -4 10 -6 0 -12 -4 -12 -10 -1 -5 -2 -16
-3 -22 -1 -7 -10 -13 -21 -14 -54 -3 -55 -3 -51 -34 2 -17 -3 -35 -11 -42 -8
-6 -20 -23 -28 -37 -11 -22 -11 -29 1 -46 8 -10 14 -26 13 -34 0 -14 -1 -14
-6 -1 -3 8 -20 30 -37 49 -22 24 -26 32 -12 27 28 -10 46 20 34 56 -6 16 -8
32 -4 35 3 4 -2 15 -11 26 -13 15 -14 18 -3 12 11 -6 10 -3 -3 12 -9 11 -14
23 -10 26 3 4 1 7 -5 7 -7 0 -12 7 -12 15 0 18 -23 19 -51 4 -16 -8 -25 -7
-41 8 -20 18 -21 18 -10 -3z m82 -24 c0 -5 -8 -10 -17 -10 -15 0 -16 2 -3 10
19 12 20 12 20 0z m-25 -24 c14 6 17 4 13 -8 -4 -9 -1 -21 5 -27 8 -8 8 -14
-1 -23 -9 -9 -13 -7 -18 8 -4 10 -16 26 -26 35 -10 9 -15 19 -11 23 4 3 10 2
13 -4 4 -6 15 -7 25 -4z m-48 -78 c-3 -8 -6 -5 -6 6 -1 11 2 17 5 13 3 -3 4
-12 1 -19z m350 7 c2 -6 -28 -10 -77 -10 -77 0 -89 3 -73 19 11 10 146 2 150
-9z m-97 -315 c0 -5 -4 -10 -10 -10 -5 0 -10 5 -10 10 0 6 5 10 10 10 6 0 10
-4 10 -10z"/>
<path d="M700 2166 c0 -8 -6 -16 -12 -19 -7 -3 -4 -5 8 -4 15 1 20 6 16 19 -5
22 -12 24 -12 4z"/>
<path d="M761 2168 c-1 -9 -9 -22 -18 -27 -10 -6 -13 -11 -7 -11 17 0 37 27
31 42 -4 8 -6 7 -6 -4z"/>
<path d="M596 2155 c4 -8 10 -15 15 -15 4 0 6 7 3 15 -4 8 -10 15 -15 15 -4 0
-6 -7 -3 -15z"/>
<path d="M542 2144 c10 -10 20 -16 22 -13 3 3 -5 11 -17 18 -21 13 -21 12 -5
-5z"/>
<path d="M835 2071 c-3 -5 -2 -12 3 -15 5 -3 9 1 9 9 0 17 -3 19 -12 6z"/>
<path d="M283 2050 c-12 -5 -27 -19 -33 -31 -10 -17 -9 -20 2 -14 7 3 4 -1 -6
-9 -30 -24 -14 -28 22 -6 20 12 32 28 32 41 0 12 5 19 13 17 24 -9 18 -37 -18
-77 -20 -22 -40 -53 -45 -70 -8 -27 -6 -31 11 -31 11 0 17 -4 14 -10 -11 -17
11 -11 27 8 27 31 34 49 11 30 -11 -10 -27 -18 -36 -18 -29 0 -19 36 23 85 42
49 47 64 28 83 -14 14 -15 14 -45 2z"/>
<path d="M1007 2023 c-4 -3 -7 -11 -7 -17 0 -6 5 -5 12 2 18 18 28 15 28 -8 0
-12 12 -25 33 -35 l32 -16 -25 21 c-14 12 -19 19 -12 15 7 -4 12 0 12 9 0 25
-56 47 -73 29z"/>
<path d="M605 2000 c-4 -6 3 -10 14 -10 25 0 27 6 6 13 -8 4 -17 2 -20 -3z"/>
<path d="M663 1976 c-3 -6 -2 -8 2 -3 5 4 19 -3 32 -14 l23 -22 -12 25 c-12
26 -34 33 -45 14z"/>
<path d="M584 1969 c-3 -5 9 -9 25 -9 17 0 31 2 31 4 0 8 -51 13 -56 5z"/>
<path d="M1000 1974 c0 -6 15 -23 33 -40 l32 -29 -30 35 c-16 19 -31 37 -32
39 -2 2 -3 0 -3 -5z"/>
<path d="M580 1938 c0 -4 14 -8 30 -8 17 0 30 2 30 4 0 2 -13 6 -30 8 -16 3
-30 1 -30 -4z"/>
<path d="M570 1889 c0 -18 20 -48 39 -59 16 -8 19 -5 23 25 2 18 0 31 -4 29
-4 -3 -8 -14 -8 -25 0 -10 -4 -19 -10 -19 -13 0 -28 32 -23 48 3 6 0 12 -6 12
-6 0 -11 -5 -11 -11z"/>
<path d="M676 1891 c-3 -5 5 -8 19 -7 14 0 25 4 25 9 0 10 -38 9 -44 -2z"/>
<path d="M708 1863 c7 -3 16 -2 19 1 4 3 -2 6 -13 5 -11 0 -14 -3 -6 -6z"/>
<path d="M670 1830 c0 -6 7 -10 15 -10 8 0 15 2 15 4 0 2 -7 6 -15 10 -8 3
-15 1 -15 -4z"/>
<path d="M420 1710 c-36 -22 -74 -40 -85 -40 -18 0 -18 -2 5 -20 33 -26 37
-26 104 15 32 19 61 35 65 35 3 0 6 -18 6 -40 1 -59 26 -79 105 -86 38 -4 83
-1 108 5 35 10 45 18 58 49 8 20 13 45 10 54 -6 24 -3 23 66 -19 l59 -37 35
19 34 18 -34 12 c-19 7 -57 26 -84 44 -28 18 -62 31 -81 31 -26 0 -34 -6 -48
-36 -17 -34 -17 -36 1 -50 31 -22 10 -29 -94 -29 -99 0 -130 8 -97 26 37 21 6
89 -41 89 -15 0 -56 -18 -92 -40z"/>
<path d="M630 1719 c0 -5 5 -7 11 -3 6 3 15 0 20 -7 7 -11 9 -10 9 4 0 10 -8
17 -20 17 -11 0 -20 -5 -20 -11z"/>
<path d="M290 1363 c0 -120 15 -168 60 -190 56 -28 147 -5 169 43 6 14 11 75
11 139 0 108 -1 115 -20 115 -19 0 -20 -7 -20 -118 0 -101 -3 -121 -17 -134
-42 -36 -117 -25 -134 19 -5 13 -9 71 -9 129 0 97 -1 104 -20 104 -19 0 -20
-7 -20 -107z"/>
<path d="M600 1320 c0 -143 1 -150 20 -150 17 0 20 7 20 53 0 44 4 58 24 76
l24 23 29 -39 c15 -22 39 -56 53 -76 16 -24 33 -37 48 -37 12 0 22 2 22 6 0 3
-24 37 -53 77 -29 40 -56 77 -60 84 -4 6 19 36 56 72 56 55 60 61 37 61 -17 0
-47 -22 -102 -77 l-78 -78 0 78 c0 70 -2 77 -20 77 -19 0 -20 -7 -20 -150z"/>
<path d="M1010 1320 c0 -143 1 -150 20 -150 18 0 20 7 20 70 l0 70 80 0 80 0
0 -70 c0 -63 2 -70 20 -70 19 0 20 7 20 150 0 142 -1 150 -20 150 -16 0 -19
-8 -22 -62 l-3 -63 -77 -3 -78 -3 0 66 c0 58 -2 65 -20 65 -19 0 -20 -7 -20
-150z"/>
<path d="M1790 1320 c0 -127 2 -150 15 -150 13 0 15 23 15 150 0 127 -2 150
-15 150 -13 0 -15 -23 -15 -150z"/>
<path d="M2000 1320 c0 -143 1 -150 20 -150 18 0 20 7 20 78 0 85 14 112 58
112 40 0 52 -25 52 -111 0 -64 3 -79 15 -79 12 0 15 17 15 90 0 77 -3 93 -20
110 -21 21 -84 28 -95 10 -14 -23 -25 -7 -25 40 0 43 -3 50 -20 50 -19 0 -20
-7 -20 -150z"/>
<path d="M1902 1448 c-7 -7 -12 -22 -12 -34 0 -12 -7 -24 -15 -28 -8 -3 -15
-10 -15 -16 0 -5 7 -10 15 -10 12 0 15 -16 15 -84 0 -93 11 -116 56 -116 30 0
33 30 4 37 -18 5 -20 14 -20 84 0 64 3 79 15 79 8 0 15 7 15 15 0 8 -7 15 -15
15 -10 0 -15 11 -15 35 0 37 -8 43 -28 23z"/>
<path d="M1347 1379 c-25 -15 -47 -63 -47 -104 0 -70 43 -115 110 -115 28 0
90 42 90 61 0 17 -35 9 -53 -11 -33 -39 -107 -11 -107 40 0 18 7 20 80 20 l80
0 0 31 c0 46 -47 89 -97 89 -21 0 -46 -5 -56 -11z m97 -35 c32 -32 20 -44 -44
-44 -64 0 -73 9 -43 42 20 22 66 24 87 2z"/>
<path d="M1585 1378 c-23 -13 -35 -28 -35 -45 0 -20 24 -15 38 7 14 23 70 28
90 8 27 -27 14 -47 -35 -54 -79 -11 -103 -29 -103 -76 0 -51 65 -73 125 -42
19 10 31 11 33 5 2 -6 11 -11 20 -11 15 0 16 11 12 96 -4 80 -8 98 -24 110
-24 17 -93 18 -121 2z m89 -169 c-13 -14 -28 -19 -53 -17 -31 3 -36 7 -39 30
-3 24 1 28 40 38 24 6 48 12 53 14 18 5 17 -45 -1 -65z"/>
<path d="M340 927 c-37 -19 -56 -60 -45 -94 12 -31 34 -44 120 -70 49 -15 61
-22 63 -41 5 -35 -25 -62 -69 -62 -51 0 -67 8 -85 41 -17 34 -44 39 -44 8 0
-33 50 -75 97 -82 77 -13 143 30 143 92 0 35 -38 68 -92 81 -71 16 -100 36
-96 63 7 51 111 58 133 9 10 -22 45 -31 45 -11 0 59 -104 100 -170 66z"/>
<path d="M1410 910 c0 -11 7 -20 15 -20 8 0 15 9 15 20 0 11 -7 20 -15 20 -8
0 -15 -9 -15 -20z"/>
<path d="M1523 913 c-7 -2 -13 -18 -13 -34 0 -19 -5 -29 -15 -29 -8 0 -15 -7
-15 -15 0 -8 7 -15 15 -15 12 0 15 -16 15 -83 0 -91 8 -107 52 -107 32 0 38
19 9 27 -17 4 -20 16 -23 84 -3 70 -1 79 15 79 9 0 17 7 17 15 0 8 -7 15 -15
15 -10 0 -15 11 -15 35 0 35 -3 38 -27 28z"/>
<path d="M604 835 c-51 -35 -57 -137 -10 -183 19 -20 35 -25 70 -25 46 0 69
12 87 45 16 30 -15 33 -44 4 -15 -14 -32 -26 -40 -26 -23 0 -67 40 -67 61 0
17 8 19 80 19 79 0 80 0 80 26 0 29 -16 64 -39 81 -22 17 -92 16 -117 -2z
m102 -27 c7 -5 14 -18 17 -28 5 -18 0 -20 -59 -20 -72 0 -83 14 -37 49 26 21
53 21 79 -1z"/>
<path d="M833 826 c-25 -22 -28 -31 -28 -85 0 -52 4 -64 27 -87 29 -30 95 -37
123 -14 27 22 38 51 26 63 -9 9 -18 3 -37 -21 -47 -60 -104 -29 -104 57 0 42
4 53 26 70 34 27 40 26 70 -4 41 -41 68 -26 33 19 -28 36 -95 37 -136 2z"/>
<path d="M1030 758 c0 -51 4 -98 8 -105 14 -22 60 -33 89 -22 15 6 31 16 35
22 5 8 8 6 8 -5 0 -10 7 -18 15 -18 12 0 15 19 15 110 0 91 -3 110 -15 110
-12 0 -15 -15 -15 -71 0 -76 -9 -102 -41 -119 -16 -9 -26 -8 -45 5 -22 14 -24
21 -24 100 0 69 -3 85 -15 85 -12 0 -15 -17 -15 -92z"/>
<path d="M1260 740 c0 -103 1 -110 20 -110 18 0 20 7 20 73 0 82 17 120 53
115 14 -2 23 3 25 15 3 13 -3 17 -25 17 -16 0 -34 -5 -41 -12 -9 -9 -12 -9
-12 0 0 7 -9 12 -20 12 -19 0 -20 -7 -20 -110z"/>
<path d="M1410 740 c0 -91 3 -110 15 -110 12 0 15 19 15 110 0 91 -3 110 -15
110 -12 0 -15 -19 -15 -110z"/>
<path d="M1627 783 c14 -38 32 -86 41 -109 19 -52 10 -92 -23 -100 -14 -3 -25
-12 -25 -20 0 -20 44 -17 63 4 13 14 117 271 117 288 0 2 -8 4 -18 4 -13 0
-25 -22 -47 -84 -16 -47 -32 -83 -36 -81 -4 3 -10 16 -13 30 -19 76 -48 135
-66 135 -18 0 -18 -4 7 -67z"/>
<path d="M321 257 c-30 -78 -56 -148 -58 -154 -3 -8 3 -13 14 -13 13 0 25 15
40 50 l22 51 62 -3 61 -3 18 -45 c13 -32 24 -46 40 -48 19 -3 22 0 16 15 -4
10 -32 80 -63 156 -75 185 -80 185 -152 -6z m104 30 l25 -67 -51 0 c-35 0 -49
4 -47 13 10 38 42 126 45 124 1 -2 14 -33 28 -70z"/>
<path d="M611 306 c-70 -39 -67 -172 4 -204 34 -15 44 -15 79 3 l29 15 -7 -32
c-11 -57 -67 -77 -106 -38 -23 23 -40 26 -40 8 1 -36 56 -63 107 -53 61 11 73
41 73 181 0 104 -2 124 -15 124 -8 0 -15 -5 -15 -11 0 -5 -10 -3 -22 5 -27 19
-55 20 -87 2z m88 -42 c12 -15 21 -41 21 -59 0 -37 -33 -85 -59 -85 -9 0 -27
7 -39 16 -18 12 -22 25 -22 69 0 44 4 57 22 69 32 23 54 20 77 -10z"/>
<path d="M864 310 c-12 -4 -31 -21 -44 -37 -18 -23 -21 -37 -18 -82 4 -44 10
-59 32 -78 38 -33 108 -32 141 2 14 13 25 29 25 35 0 18 -35 11 -48 -10 -25
-41 -112 -15 -112 33 0 15 12 17 80 17 78 0 80 1 80 25 0 74 -69 122 -136 95z
m78 -37 c10 -9 18 -24 18 -35 0 -15 -8 -18 -60 -18 -66 0 -77 13 -40 50 24 24
57 26 82 3z"/>
<path d="M1108 304 c-16 -8 -28 -10 -28 -4 0 5 -7 10 -15 10 -12 0 -15 -19
-15 -110 0 -103 1 -110 20 -110 18 0 20 7 20 85 0 80 2 86 25 101 21 14 31 15
50 6 24 -11 25 -16 25 -102 0 -83 1 -90 20 -90 19 0 20 7 20 90 0 83 -2 93
-25 115 -27 28 -57 31 -97 9z"/>
<path d="M1327 305 c-34 -19 -47 -51 -47 -111 0 -95 106 -142 164 -73 14 17
26 35 26 40 0 19 -36 8 -45 -13 -20 -45 -87 -35 -104 14 -30 86 45 169 96 105
19 -24 43 -25 43 -3 0 41 -86 67 -133 41z"/>
<path d="M1490 301 c0 -6 17 -55 39 -110 32 -84 37 -104 27 -123 -6 -13 -22
-24 -34 -26 -25 -4 -30 -30 -7 -38 8 -4 26 1 38 9 21 14 44 65 125 285 2 7 -4
12 -14 12 -15 0 -26 -20 -50 -87 l-30 -86 -30 84 c-20 55 -36 85 -47 87 -9 2
-17 -1 -17 -7z"/>
</g>
</svg>
